<?xml version="1.0" standalone="no"?>
<!DOCTYPE svg PUBLIC "-//W3C//DTD SVG 20010904//EN"
 "http://www.w3.org/TR/2001/REC-SVG-20010904/DTD/svg10.dtd">
<svg version="1.0" xmlns="http://www.w3.org/2000/svg"
 width="1182.000000pt" height="1182.000000pt" viewBox="0 0 1182.000000 1182.000000"
 preserveAspectRatio="xMidYMid meet">
<metadata>
Created by potrace 1.11, written by Peter Selinger 2001-2013
</metadata>
<g transform="translate(0.000000,1182.000000) scale(0.100000,-0.100000)"
fill="#000000" stroke="none">
<path d="M5888 9965 c-1 -1 -30 -6 -63 -9 -83 -8 -110 -14 -179 -37 -262 -88
-467 -307 -537 -574 -27 -104 -29 -270 -5 -375 74 -321 340 -567 672 -623 334
-57 672 94 847 379 41 66 92 190 102 245 28 159 25 269 -12 399 -91 320 -387
562 -718 586 -44 3 -85 7 -92 9 -6 2 -13 2 -15 0z"/>
<path d="M4130 7834 c-204 -36 -321 -81 -470 -180 -127 -84 -271 -248 -340
-383 -23 -46 -70 -165 -75 -191 -2 -8 -8 -33 -13 -55 -6 -22 -13 -64 -17 -93
-8 -62 -8 -2956 0 -2992 3 -14 7 -42 10 -64 3 -21 18 -78 35 -127 57 -172 137
-296 268 -420 89 -84 103 -95 187 -144 185 -109 331 -149 545 -150 114 0 202
9 243 24 15 6 27 9 27 6 0 -2 30 7 68 19 392 134 657 445 718 846 4 25 8 158
9 295 2 191 7 264 19 308 116 420 642 573 966 280 76 -69 131 -151 159 -236
30 -91 32 -115 36 -391 3 -303 18 -387 96 -553 146 -309 446 -531 793 -588 79
-13 267 -13 341 0 117 20 271 73 345 120 22 14 42 25 45 25 13 0 123 87 178
139 159 153 275 371 305 576 4 28 7 725 7 1550 0 1399 -1 1505 -18 1573 -56
231 -194 450 -367 580 -19 15 -37 30 -40 33 -3 3 -36 24 -75 47 -109 64 -220
107 -360 138 -63 14 -300 13 -379 -1 -75 -14 -155 -36 -201 -55 -199 -83 -348
-196 -465 -352 -97 -128 -157 -267 -196 -453 -3 -16 -7 -148 -9 -292 -3 -193
-8 -278 -19 -322 -67 -261 -296 -440 -566 -442 -253 -2 -479 152 -560 384 -30
86 -32 108 -35 367 -2 263 -5 295 -36 409 -54 203 -184 402 -354 540 -68 56
-256 161 -288 161 -7 0 -17 4 -23 9 -26 25 -193 53 -329 56 -77 2 -151 2 -165
-1z"/>
</g>
</svg>
